<?xml version="1.0" encoding="UTF-8"?>
<svg id="Calque_2" data-name="Calque 2" xmlns="http://www.w3.org/2000/svg" viewBox="0 0 2047.75 500">
  <defs>
    <style>
      .cls-1 {
        fill: #fff;
        stroke-width: 0px;
      }
    </style>
  </defs>
  <g id="Calque_1-2" data-name="Calque 1">
    <polygon class="cls-1" points="227.81 0 177.85 250.24 227.7 500 269.84 500 219.93 250.24 269.95 0 227.81 0"/>
    <polygon class="cls-1" points="133.45 0 0 250.24 133.22 500 179.16 500 45.89 250.24 179.4 0 133.45 0"/>
    <polygon class="cls-1" points="323.35 0 373.38 250.24 323.45 500 365.59 500 415.47 250.24 365.48 0 323.35 0"/>
    <polygon class="cls-1" points="413.93 0 547.39 250.25 414.15 500 460.11 500 593.29 250.25 459.89 0 413.93 0"/>
    <g>
      <path class="cls-1" d="M774.47,100h-39.1v249.99h39.1V100ZM1068.02,225.17c0-22.64-6.86-48.01-21.94-70.98-9.95-15.09-25.04-28.81-42.87-38.76-17.83-9.6-41.84-15.44-68.58-15.44h-79.22v249.99h79.9c35.66,0,66.53-10.98,86.77-27.43,30.85-25.03,46.64-62.74,45.94-97.39M1026.87,225.17c0,17.15-4.11,33.61-13.72,49.04-5.14,7.55-11.31,14.4-18.18,20.23-14.06,11.31-36.01,19.2-61.38,19.2h-39.09v-177.3h39.44c25.38,0,47.33,7.89,61.39,19.9,21.25,18.51,32.22,45.61,31.53,68.93M1132.15,100v249.99h161.17v-35.67h-122.08v-73.73h110.07v-35.66h-110.07v-69.27h121.05v-35.67h-160.14ZM1629.39,350V99.99h-54.53l-79.56,193.42h-.35l-80.93-193.42h-53.15v249.99h38.41v-186.55h1.03l77.85,186.56h33.27l78.19-187.24h.68v187.24h39.09,0ZM1749.41,100h-39.09v249.99h39.09V100ZM1861.89,291.36h122.08l22.98,58.64h40.8l-101.16-249.99h-46.29l-101.85,249.99h40.12l23.32-58.64h0ZM1875.6,256.38l47.33-118.66,47.66,118.66h-94.99Z"/>
      <path class="cls-1" d="M809.16,433.33c-1.21-4.47-4.07-9.08-8.67-13.28-4.61-4.2-11.93-7.05-20.19-7.05-6.37,0-12.06,1.49-17.34,4.6-5.15,3.26-9.21,7.59-12.2,13.14-2.98,5.55-4.47,11.79-4.47,18.57-.41,19.92,14.37,36.59,33.87,36.32,8.27,0,15.04-2.17,20.05-6.24,5.15-4.2,8.27-9.48,9.35-15.99h-35.37v-14.09h52.17v5.42c0,12.46-4.61,23.71-12.2,31.84-7.72,8.27-19.78,13.28-33.87,13.28-9.75,0-18.43-2.17-26.01-6.51-7.72-4.47-13.68-10.44-17.88-18.02-4.2-7.72-6.24-16.26-6.24-25.74,0-7.18,1.35-14.09,3.93-20.46,2.44-6.24,5.96-11.66,10.44-16.12,8.94-8.94,21.81-14.51,35.91-14.51,23.85,0,39.43,14.37,43.91,30.08l-15.18,4.75h-.01Z"/>
      <path class="cls-1" d="M886.52,447.28c14.91,0,19.51-8.67,19.51-16.4s-3.39-16.53-19.51-16.53h-20.06v32.93h20.06ZM866.47,461.24v37.53h-15.45v-98.78h37.13c11.93,0,21,3.66,26.15,9.48,5.15,5.96,7.45,12.87,7.45,21,0,12.87-6.78,23.18-19.51,27.65l21.95,40.65h-17.21l-19.92-37.53h-20.6.01Z"/>
      <path class="cls-1" d="M991.39,485.49c9.48,0,18.3-4.2,24.52-10.57,6.09-6.51,9.89-15.85,9.89-25.61,0-6.65-1.49-12.74-4.47-18.3-3.12-5.55-7.32-9.88-12.6-13.14-5.28-3.25-11.12-4.87-17.34-4.87-19.11-.41-34.83,16.53-34.43,36.32-.4,19.51,15.32,36.58,34.43,36.17M944.78,429.54c2.58-6.37,6.24-11.79,10.85-16.26,4.47-4.6,9.88-8.13,16.26-10.71,6.09-2.72,12.73-4.07,19.65-4.07,9.21,0,17.75,2.31,25.47,6.64,7.73,4.34,13.82,10.44,18.3,18.3,4.47,7.72,6.78,16.4,6.78,25.74,0,7.19-1.35,13.82-4.07,20.19-2.71,6.37-6.37,11.79-10.85,16.12-4.6,4.47-10.02,7.99-16.26,10.57-6.37,2.58-12.87,3.93-19.79,3.93s-13.42-1.35-19.65-3.93c-6.24-2.44-11.66-5.96-16.13-10.3-4.47-4.47-8-9.75-10.71-16.12-2.58-6.09-3.93-12.87-3.93-20.06.01-7.04,1.36-13.81,4.08-20.04"/>
      <path class="cls-1" d="M1143.28,460.42c0,11.66-3.39,21.41-9.75,28.46-6.22,7.18-16.26,11.11-28.86,11.11s-22.91-4.2-29-11.25-9.21-16.53-9.21-27.65v-61.1h15.45v60.57c0,7.59,2.17,13.68,6.37,18.15,4.34,4.48,9.89,6.65,16.66,6.65,7.18,0,12.74-2.17,16.8-6.78,3.93-4.47,5.96-10.31,5.96-17.48v-61.11h15.58v60.43h.01-.01Z"/>
      <path class="cls-1" d="M1207.63,414.36h-18.15v33.6h18.15c7.18,0,12.73-2.17,15.72-5.55,2.98-3.39,4.47-7.18,4.47-11.38,0-7.46-3.93-16.67-20.19-16.67M1234.33,452.84c-5.96,5.82-15.59,9.35-27.24,9.35h-17.61v36.59h-15.45v-98.79h34.97c14.77,0,24.39,5.42,29.54,13.28,3.52,5.42,5.01,11.12,5.01,17.48-.01,8.53-3.26,16.25-9.22,22.08"/>
    </g>
  </g>
</svg>